<?xml version="1.0" encoding="UTF-8"?>
<!DOCTYPE svg PUBLIC "-//W3C//DTD SVG 1.1//EN" "http://www.w3.org/Graphics/SVG/1.1/DTD/svg11.dtd">
<!-- Creator: CorelDRAW X7 -->
<svg xmlns="http://www.w3.org/2000/svg" xml:space="preserve" width="121.787mm" height="33.3985mm" version="1.1" style="shape-rendering:geometricPrecision; text-rendering:geometricPrecision; image-rendering:optimizeQuality; fill-rule:evenodd; clip-rule:evenodd"
viewBox="0 0 12179 3340"
 xmlns:xlink="http://www.w3.org/1999/xlink">
 <defs>
  <style type="text/css">
   <![CDATA[
    .fil0 {fill:#2A1B3D}
    .fil2 {fill:#A4B1B4}
    .fil1 {fill:#D83F87}
    .fil3 {fill:#210645;fill-rule:nonzero}
   ]]>
  </style>
 </defs>
 <g id="Layer_x0020_1">
  <metadata id="CorelCorpID_0Corel-Layer"/>
  <path class="fil0" d="M1657 3340l-1 -1012 -2 -427c48,-742 -425,-862 -795,-1383 -45,-62 -72,-139 -122,-195 -31,317 -5,771 -5,1103 0,696 -78,864 373,1304l552 610z"/>
  <path class="fil0" d="M1726 1901l-3 443 0 996c142,-115 688,-720 801,-898 168,-263 123,-633 123,-983 0,-370 11,-757 -2,-1125 -3,3 -9,3 -10,10l-179 259c-30,38 -49,51 -78,86 -354,429 -689,539 -652,1212z"/>
  <path class="fil1" d="M2124 3168c60,-32 24,-14 70,-57 202,-190 472,-362 604,-543 126,-171 209,-347 209,-585 0,-508 13,-1202 -2,-1689 -64,47 -68,68 -113,123 -50,61 -60,56 -61,156 -4,451 -27,962 -22,1394 3,322 -92,519 -245,695 -130,148 -359,364 -440,506z"/>
  <path class="fil1" d="M1263 3179c-42,-75 -145,-198 -205,-254 -268,-253 -496,-522 -488,-942 9,-439 -21,-925 -22,-1377 0,-128 8,-101 -55,-182 -50,-64 -40,-66 -110,-126 -3,-2 -7,-6 -11,-9 5,341 -24,1662 20,1877 78,375 347,588 617,792l254 221z"/>
  <path class="fil2" d="M0 2040c5,32 23,340 376,650 227,200 295,253 538,470 -62,-115 -132,-169 -208,-259 -74,-87 -157,-157 -229,-247 -154,-190 -280,-341 -275,-687 5,-313 -10,-636 -14,-951 -1,-155 -6,-303 -9,-460 -2,-137 -71,-243 -179,-310l0 1794z"/>
  <path class="fil2" d="M3377 247c-43,22 -74,74 -111,116 -52,58 -67,69 -67,177l-22 1411c9,488 -243,652 -489,934 -66,76 -156,164 -212,260 129,-104 112,-118 257,-232 190,-149 387,-297 511,-505 94,-148 128,-279 130,-372 1,-29 3,-1613 3,-1789z"/>
  <path class="fil0" d="M2134 31c156,0 283,126 283,283 0,152 -120,276 -271,282 -7,-176 -118,-326 -273,-390 42,-103 143,-175 261,-175z"/>
  <path class="fil0" d="M1323 0c122,0 227,78 266,187 -172,46 -302,193 -325,373 -128,-27 -224,-141 -224,-277 0,-156 126,-283 283,-283z"/>
  <circle class="fil1" cx="1704" cy="615" r="372"/>
  <g id="_2402539098656">
   <path class="fil3" d="M4012 2148l0 -1516 710 0 0 248 -339 0 0 338 253 0 0 258 -253 0 0 424 343 0 0 248 -714 0zm1231 -186c18,0 41,-8 68,-24l0 -676c-22,-11 -44,-17 -64,-17 -22,0 -39,8 -50,23 -12,16 -18,37 -18,64l0 553c0,22 6,40 18,54 11,15 27,23 46,23zm-157 206c-77,0 -137,-27 -180,-79 -43,-53 -64,-128 -64,-224l0 -517c0,-92 22,-166 66,-221 45,-55 105,-82 181,-82 79,0 153,29 222,87l0 -500 335 0 0 1516 -335 0 0 -88c-74,72 -149,108 -225,108zm948 0c-65,0 -117,-24 -155,-72 -37,-48 -56,-111 -56,-191l0 -840 335 0 0 814c0,45 17,67 52,67 1,0 2,0 4,0 22,-1 46,-9 74,-24l0 -857 335 0 0 1083 -335 0 0 -98c-83,78 -168,118 -254,118zm1146 0c-117,0 -211,-31 -283,-92 -72,-61 -108,-144 -108,-251l0 -439c0,-107 36,-190 107,-251 72,-60 167,-90 284,-90 117,0 211,27 281,82 70,54 105,134 105,240l0 129 -328 0 0 -140c0,-33 -5,-56 -15,-67 -10,-12 -24,-18 -43,-18 -36,0 -54,32 -54,94l0 481c0,62 18,93 54,93 18,0 33,-6 43,-17 10,-12 15,-34 15,-67l0 -159 328 0 0 148c0,105 -35,186 -105,241 -71,55 -164,83 -281,83zm889 -218c27,0 51,-14 72,-42l0 -295c-47,22 -85,56 -112,103 -28,45 -42,87 -42,125 0,33 8,60 24,79 16,20 35,30 58,30zm-116 218c-43,-1 -82,-9 -116,-25 -34,-17 -61,-38 -82,-64 -22,-25 -37,-54 -49,-85 -11,-30 -17,-62 -17,-94 0,-36 5,-69 14,-100 9,-31 21,-58 35,-81 14,-23 32,-45 54,-65 23,-21 45,-38 65,-51 21,-14 46,-28 75,-41 28,-14 53,-25 73,-32 21,-8 45,-17 73,-28 29,-10 49,-18 63,-24l0 -117c0,-45 -17,-67 -51,-67 -19,0 -32,6 -40,17 -7,12 -12,28 -13,49l-10 87 -309 -13 1 -16c1,-11 1,-17 1,-18 10,-121 48,-210 115,-268 67,-58 163,-87 288,-87 106,0 189,30 248,90 59,60 88,137 88,231l0 509c0,33 1,67 3,99 2,33 3,56 4,71 2,15 4,36 7,62 4,26 5,40 5,41l-297 0c-16,-98 -24,-149 -25,-151 -14,49 -39,90 -74,122 -34,33 -78,49 -129,49zm997 -9c-36,-1 -69,-7 -99,-16 -29,-10 -54,-22 -73,-37 -20,-14 -37,-33 -51,-56 -14,-22 -25,-44 -33,-67 -9,-23 -15,-50 -20,-80 -4,-32 -7,-60 -8,-86 -1,-26 -2,-56 -2,-91l0 -443 -102 0 0 -218 102 0 0 -334 339 0 0 334 149 0 0 218 -149 0 0 520c0,26 9,46 28,58 18,13 41,20 68,22 13,1 26,0 40,-1 14,-2 25,-3 32,-5 8,-1 12,-2 13,-3l0 268c-64,12 -127,18 -189,18 -15,0 -30,0 -45,-1zm685 -682l129 0 0 -110c0,-57 -23,-85 -70,-85 -39,0 -59,32 -59,94l0 101zm335 608c-67,55 -159,83 -276,83 -116,0 -210,-31 -283,-92 -72,-61 -108,-144 -108,-251l0 -437c0,-107 36,-191 108,-252 73,-61 167,-91 283,-91 118,0 210,28 277,84 67,56 100,138 100,245l0 255 -436 0 0 207c0,32 6,57 17,72 11,14 25,22 42,22 47,0 70,-28 70,-84l0 -86 307 0 0 83c0,106 -33,187 -101,242zm635 -454l136 0 -68 -566 -68 566zm-425 517l275 -1516 432 0 272 1516 -339 0 -48 -303 -196 0 -46 303 -350 0zm1126 0l0 -1516 335 0 0 1516 -335 0zm538 0l0 -1516 335 0 0 1516 -335 0z"/>
   <path class="fil3" d="M4322 2756l-224 0 0 218 -86 0 0 -511 346 0 0 68 -260 0 0 156 224 0 0 69zm930 9c0,62 -20,114 -59,155 -39,41 -90,62 -152,62 -62,0 -112,-21 -150,-62 -38,-41 -57,-93 -57,-155l0 -93c0,-62 19,-113 57,-155 38,-41 88,-61 149,-61 63,0 114,20 153,61 39,42 59,93 59,155l0 93zm-85 -93c0,-43 -11,-77 -34,-105 -23,-27 -54,-41 -93,-41 -37,0 -67,14 -89,41 -21,28 -32,62 -32,105l0 93c0,43 11,78 32,106 22,27 52,41 90,41 39,0 70,-14 92,-41 23,-28 34,-63 34,-106l0 -93zm990 -209l0 343c0,56 -19,100 -56,130 -37,30 -85,46 -145,46 -58,0 -106,-16 -142,-46 -36,-31 -55,-74 -55,-130l0 -343 86 0 0 342c0,36 10,63 30,81 20,18 47,27 81,27 35,0 63,-9 84,-27 21,-18 31,-45 31,-81l0 -342 86 0zm925 511l-85 0 -227 -373 -2 0 0 373 -86 0 0 -511 86 0 227 373 2 -1 0 -372 85 0 0 511zm536 0l0 -511 165 0c65,0 118,20 159,61 40,40 61,92 61,156l0 78c0,63 -21,116 -61,156 -41,40 -94,60 -159,60l-165 0zm85 -443l0 375 78 0c42,0 76,-14 100,-41 24,-28 36,-64 36,-108l0 -78c0,-43 -12,-79 -36,-106 -24,-28 -58,-42 -100,-42l-78 0zm1081 324l-201 0 -40 119 -87 0 188 -511 81 0 186 511 -87 0 -40 -119zm-176 -71l151 0 -74 -219 -2 0 -75 219zm1135 -253l-154 0 0 443 -86 0 0 -443 -154 0 0 -68 394 0 0 68zm581 443l-85 0 0 -511 85 0 0 511zm939 -209c0,62 -20,114 -59,155 -39,41 -90,62 -152,62 -62,0 -112,-21 -150,-62 -38,-41 -57,-93 -57,-155l0 -93c0,-62 19,-113 57,-155 38,-41 88,-61 149,-61 63,0 114,20 153,61 39,42 59,93 59,155l0 93zm-85 -93c0,-43 -11,-77 -34,-105 -23,-27 -54,-41 -93,-41 -37,0 -67,14 -89,41 -21,28 -32,62 -32,105l0 93c0,43 11,78 32,106 22,27 52,41 90,41 39,0 70,-14 92,-41 23,-28 34,-63 34,-106l0 -93zm1001 302l-85 0 -227 -373 -2 0 0 373 -86 0 0 -511 86 0 226 373 3 -1 0 -372 85 0 0 511z"/>
  </g>
 </g>
</svg>
